<?xml version="1.0" encoding="UTF-8"?><svg id="Layer_2" xmlns="http://www.w3.org/2000/svg" viewBox="0 0 626.267578125 587.9995117188"><g id="Layer_1-2"><path d="M561.8671875,153.06640625h-44.4921875c8.685546875-15.373046875,13.2255859375-32.5659179688,13.2255859375-50.3999023438,0-56.6103515625-46.1630859375-102.6665039062-102.90625-102.6665039062-19.142578125,0-37.8857421875,5.3227539062-54.2001953125,15.3935546875-16.3271484375,10.0776367188-29.4814453125,24.4526367188-38.041015625,41.5708007812l-22.3193359375,44.638671875-22.3193359375-44.638671875c-8.5595703125-17.1181640625-21.7138671875-31.4931640625-38.041015625-41.5708007812C236.458984375,5.3227539062,217.7158203125,0,198.5732421875,0c-56.7431640625,0-102.90625,46.0561523438-102.90625,102.6665039062,0,17.833984375,4.5400390625,35.0268554688,13.2255859375,50.3999023438h-44.4921875C28.8896484375,153.06640625,0,181.9560546875,0,217.4663085938v38.2670898438c0,25.5541992188,15.185546875,48.6293945312,38.267578125,58.9077148438v189.8251953125c0,46.060546875,37.47265625,83.533203125,83.533203125,83.533203125h382.666015625c46.060546875,0,83.533203125-37.47265625,83.533203125-83.533203125v-189.8251953125c23.08203125-10.2783203125,38.267578125-33.353515625,38.267578125-58.9077148438v-38.2670898438c0-35.5102539062-28.8896484375-64.3999023438-64.400390625-64.3999023438ZM287,320.1333007812v215.599609375H121.80078125c-17.240234375,0-31.2666015625-14.0263671875-31.2666015625-31.2666015625v-184.3330078125h196.4658203125ZM535.7333984375,320.1333007812v184.3330078125c0,17.240234375-14.0263671875,31.2666015625-31.2666015625,31.2666015625h-165.19921875v-215.599609375h196.4658203125ZM147.93359375,102.6665039062c0-27.7905273438,22.716796875-50.3999023438,50.6396484375-50.3999023438,19.076171875,0,36.9462890625,11.0200195312,45.5166015625,28.0556640625l36.3193359375,72.744140625h-82.0751953125c-27.791015625,0-50.400390625-22.609375-50.400390625-50.3999023438ZM345.8583984375,153.06640625l36.31640625-72.73828125c8.58203125-17.0478515625,26.447265625-28.0615234375,45.51953125-28.0615234375,27.9228515625,0,50.6396484375,22.609375,50.6396484375,50.3999023438s-22.609375,50.3999023438-50.400390625,50.3999023438h-82.0751953125ZM574,217.4663085938v38.2670898438c0,6.6904296875-5.4423828125,12.1333007812-12.1328125,12.1333007812H64.400390625c-6.6904296875,0-12.1328125-5.4428710938-12.1328125-12.1333007812v-38.2670898438c0-6.6904296875,5.4423828125-12.1333007812,12.1328125-12.1333007812h497.466796875c6.6904296875,0,12.1328125,5.4428710938,12.1328125,12.1333007812Z"/></g></svg>