<?xml version="1.0" encoding="UTF-8"?>
<svg id="Layer_1" xmlns="http://www.w3.org/2000/svg" version="1.1" viewBox="0 0 640 640">
  <!-- Generator: Adobe Illustrator 29.8.1, SVG Export Plug-In . SVG Version: 2.1.1 Build 2)  -->
  <path d="M382.7812,103.1954l-41.3758,82.8713h93.3946c31.6896,0,57.4-25.7104,57.4-57.4s-25.83-57.4-57.6392-57.4c-21.8837,0-41.9737,12.4367-51.7796,31.9287ZM205.2,224.3333H71.2667c-10.5233,0-19.1333,8.61-19.1333,19.1333v38.2667c0,10.5233,8.61,19.1333,19.1333,19.1333h497.4667c10.5233,0,19.1333-8.61,19.1333-19.1333v-38.2667c0-10.5233-8.61-19.1333-19.1333-19.1333H205.2ZM71.2667,186.0667h57.4c-11.9583-16.0242-19.1333-35.875-19.1333-57.4,0-52.8558,43.05-95.6667,95.9058-95.6667,36.3533,0,69.7171,20.5683,85.9804,53.095l28.5804,57.1608,28.5804-57.1608c16.2633-32.5267,49.6271-53.095,85.9804-53.095,52.7363,0,95.9058,42.8108,95.9058,95.6667,0,21.525-7.175,41.3758-19.1333,57.4h57.4c31.6896,0,57.4,25.7104,57.4,57.4v38.2667c0,24.9929-16.0242,46.2788-38.2667,54.1712v194.5621c0,42.2129-34.3204,76.5333-76.5333,76.5333H128.6667c-42.2129,0-76.5333-34.3204-76.5333-76.5333v-194.5621c-22.2425-7.8925-38.2667-29.1783-38.2667-54.1712v-38.2667c0-31.6896,25.7104-57.4,57.4-57.4ZM298.5946,186.0667l-41.3758-82.8713c-9.8058-19.4921-29.8958-31.9287-51.7796-31.9287-31.8092,0-57.6392,25.7104-57.6392,57.4s25.7104,57.4,57.4,57.4h93.3946ZM90.4,530.4667c0,21.1663,17.1004,38.2667,38.2667,38.2667h172.2v-229.6H90.4v191.3333ZM339.1333,568.7333h172.2c21.1663,0,38.2667-17.1004,38.2667-38.2667v-191.3333h-210.4667v229.6Z"/>
</svg>